<svg xmlns="http://www.w3.org/2000/svg" width="48" height="48" viewBox="-5 -8 48 48"><g fill="#012A55" fill-rule="nonzero"><path d="M4.477 15.072h5.189v-1.64H4.477zM10.99 15.072H23.2v-1.64H10.99zM24.828 15.072h4.884v-1.64h-4.884zM18.316 19.142h11.396v-1.64H18.316zM4.477 19.142h12.21v-1.64H4.478z"/><path d="M2.442 2.855v18.71c0 .229.185.414.413.414h3.65l2.713 2.955c.124.135.28.135.404 0l2.712-2.955H31.34a.409.409 0 0 0 .407-.413V2.856a.41.41 0 0 0-.408-.414H2.85a.406.406 0 0 0-.408.413zm.413 21.566A2.855 2.855 0 0 1 0 21.566V2.856A2.848 2.848 0 0 1 2.85 0h28.489a2.852 2.852 0 0 1 2.85 2.855v18.71a2.85 2.85 0 0 1-2.849 2.856H13.408l-1.987 2.164a2.69 2.69 0 0 1-4.002 0l-1.987-2.164H2.855z"/></g></svg>