<svg xmlns="http://www.w3.org/2000/svg" width="48" height="48" viewBox="-3 -7 48 48"><g fill="#012A55" fill-rule="nonzero" stroke="#012A55"><path d="M32.08 1.475a1.087 1.087 0 0 0-1.29.835L30 5.995A14.123 14.123 0 0 0 17.813-.987c-7.79 0-14.128 6.338-14.128 14.129a1.087 1.087 0 0 0 2.174 0c0-6.592 5.362-11.955 11.954-11.955 4.298 0 8.217 2.296 10.34 5.95l-3.624-.776a1.087 1.087 0 1 0-.455 2.125l6.22 1.333a1.085 1.085 0 0 0 1.29-.835l1.333-6.22a1.087 1.087 0 0 0-.835-1.29zM30.987 13.717c-.6.02-1.07.522-1.05 1.122a11.876 11.876 0 0 1-3.22 8.564 11.877 11.877 0 0 1-8.731 3.785c-4.165 0-8-2.163-10.167-5.667l3.777 1.013a1.087 1.087 0 0 0 .563-2.1l-6.143-1.647a1.088 1.088 0 0 0-1.332.769l-1.647 6.143a1.087 1.087 0 0 0 2.1.563l.926-3.453a14.122 14.122 0 0 0 12.392 6.545 14.036 14.036 0 0 0 9.848-4.465 14.035 14.035 0 0 0 3.806-10.122 1.086 1.086 0 0 0-1.122-1.05z"/></g></svg>