<svg xmlns="http://www.w3.org/2000/svg" xmlns:xlink="http://www.w3.org/1999/xlink" width="48" height="48" viewBox="-3 -3 48 48"><defs><rect id="a" width="11.482" height="8.076" x="10.596" y="10.684" rx="1"/><rect id="b" width="19.382" height="8.076" x="15.149" y="19.187" rx="1"/></defs><g fill="none" fill-rule="evenodd"><g transform="scale(-1 1) rotate(45 -1.161 -27.522)"><use fill="#FFF" xlink:href="#a"/><rect width="9.982" height="6.576" x="11.346" y="11.434" stroke="#D8D8D8" stroke-width="1.5" rx="1"/></g><g transform="scale(-1 1) rotate(45 7.343 -19.019)"><use fill="#D8D8D8" xlink:href="#b"/><rect width="17.882" height="6.576" x="15.899" y="19.937" stroke="#D8D8D8" stroke-width="1.5" rx="1"/></g><path fill="#D8D8D8" d="M9.525 9.163c.134-.54.679-1.087 1.222-1.222l1.797-.444c1.077-.267 1.083-.685 0-.938l-1.797-.42c-.54-.125-1.087-.67-1.216-1.198l-.458-1.874c-.263-1.076-.682-1.07-.932 0l-.439 1.874c-.125.536-.668 1.072-1.193 1.193l-1.866.432c-1.073.247-1.067.663 0 .924l1.866.457c.533.13 1.07.673 1.199 1.216l.426 1.798c.256 1.077.678 1.083.946 0l.445-1.798zM30.523 22.085c.134-.541.678-1.088 1.222-1.222l1.797-.445c1.076-.266 1.082-.684 0-.937l-1.797-.42c-.541-.126-1.088-.67-1.217-1.198l-.457-1.874c-.263-1.077-.682-1.07-.933 0l-.438 1.874c-.126.536-.668 1.072-1.194 1.193l-1.866.431c-1.072.248-1.066.663 0 .925l1.866.457c.534.13 1.07.673 1.2 1.216l.426 1.798c.256 1.076.677 1.082.946 0l.445-1.798zM28.908 7.548c.134-.54.678-1.087 1.221-1.222l1.798-.444c1.076-.267 1.082-.685 0-.938l-1.798-.42c-.54-.126-1.087-.67-1.216-1.198l-.457-1.874c-.263-1.076-.682-1.07-.933 0l-.439 1.874c-.125.536-.667 1.072-1.193 1.193l-1.866.431c-1.073.248-1.066.664 0 .925l1.866.457c.534.13 1.07.673 1.199 1.216l.427 1.798c.255 1.077.677 1.083.945 0l.446-1.798z"/></g></svg>