<svg xmlns="http://www.w3.org/2000/svg" xmlns:xlink="http://www.w3.org/1999/xlink" width="48" height="48" viewBox="-3 -4 48 48"><defs><path id="a" d="M28.668.752L7.551 30.1c-.562.781-.342 1.842.492 2.37.833.526 1.965.32 2.527-.461L31.687 2.66c.562-.781.342-1.842-.491-2.37-.834-.526-1.966-.32-2.528.461z"/></defs><g fill="none" fill-rule="nonzero"><g fill="#1E304C"><path d="M7.755 25.192c-3.775 0-6.833-2.982-6.833-6.663v-3.37c0-3.69 3.065-6.736 6.833-6.736h2.894l3.165-3.086c3.84-3.745 7.834-2.124 7.834 3.185v16.57c0 5.311-3.986 6.937-7.834 3.186l-3.165-3.086H7.755zm0-13.77c-2.057 0-3.759 1.692-3.759 3.736v3.37c0 2.025 1.681 3.664 3.759 3.664h4.166l4.066 3.964c1.906 1.859 2.587 1.581 2.587-1.063V8.523c0-2.64-.685-2.919-2.587-1.064l-4.066 3.964H7.755zM27.903 20.724a9.84 9.84 0 0 0 .805-3.913 9.831 9.831 0 0 0-.814-3.933c-.331-.763-1.233-1.12-2.015-.797a1.487 1.487 0 0 0-.816 1.966c.38.874.571 1.802.571 2.764 0 .957-.19 1.88-.564 2.75a1.487 1.487 0 0 0 .82 1.964c.783.321 1.684-.038 2.013-.801zM33.311 25.517c.79-1.29 1.4-2.673 1.814-4.114a16.63 16.63 0 0 0 .644-4.591c0-1.56-.217-3.104-.644-4.591a16.678 16.678 0 0 0-1.814-4.114 1.559 1.559 0 0 0-2.108-.517 1.48 1.48 0 0 0-.53 2.056c.65 1.061 1.152 2.2 1.492 3.384.351 1.223.53 2.495.53 3.782 0 1.286-.179 2.559-.53 3.782a13.718 13.718 0 0 1-1.492 3.383 1.48 1.48 0 0 0 .53 2.057 1.559 1.559 0 0 0 2.108-.517z"/></g><use fill="#1E304C" fill-rule="evenodd" xlink:href="#a"/><path stroke="#FFF" stroke-width="1.5" d="M28.06.314c.796-1.106 2.37-1.393 3.536-.656 1.195.756 1.517 2.306.7 3.441L11.179 32.446c-.796 1.106-2.371 1.393-3.537.656-1.195-.756-1.516-2.306-.7-3.441L28.06.314z"/></g></svg>