<svg xmlns="http://www.w3.org/2000/svg" width="48" height="48" viewBox="-7 -7 48 48"><path fill="#D8D8D8" fill-rule="nonzero" d="M29.597 1.619c.248.247.37.54.37.878v8.74a1.2 1.2 0 0 1-.37.879 1.2 1.2 0 0 1-.878.37h-8.74c-.338 0-.631-.123-.879-.37a1.202 1.202 0 0 1-.37-.878c0-.338.124-.631.37-.878l2.693-2.693c-1.925-1.782-4.195-2.673-6.81-2.673a9.818 9.818 0 0 0-4.877 1.269 9.836 9.836 0 0 0-3.629 3.492c-.143.221-.488.982-1.034 2.283-.104.299-.299.448-.585.448H.975a.6.6 0 0 1-.439-.185.6.6 0 0 1-.185-.439v-.136c.846-3.487 2.601-6.312 5.268-8.478C8.285 1.083 11.407 0 14.984 0c1.9 0 3.747.36 5.541 1.083a15.112 15.112 0 0 1 4.78 3.053l2.537-2.517c.247-.247.54-.37.877-.37a1.2 1.2 0 0 1 .878.37zm-.741 15.862c.169 0 .315.062.439.185a.601.601 0 0 1 .166.576c-.832 3.486-2.575 6.312-5.229 8.477-2.653 2.166-5.762 3.248-9.326 3.248-1.899 0-3.736-.357-5.511-1.073a14.899 14.899 0 0 1-4.751-3.063l-2.517 2.517c-.247.247-.54.371-.878.371-.338 0-.631-.124-.878-.37A1.2 1.2 0 0 1 0 27.47v-8.74a1.2 1.2 0 0 1 .37-.878 1.2 1.2 0 0 1 .879-.371h8.74c.339 0 .631.123.879.37.247.247.37.54.37.879a1.2 1.2 0 0 1-.37.877L8.195 22.28c.923.859 1.97 1.522 3.14 1.991a9.737 9.737 0 0 0 3.649.702 9.816 9.816 0 0 0 4.878-1.268 9.843 9.843 0 0 0 3.629-3.493c.143-.22.487-.981 1.033-2.282.104-.3.3-.449.586-.449h3.746z"/></svg>