<svg xmlns="http://www.w3.org/2000/svg" width="18" height="28" viewBox="0 0 18 28">
    <path fill="#1E8508" fill-rule="nonzero" d="M5.202 25.506h7.576c1.466 0 1.466 2.2 0 2.2H5.202c-1.466 0-1.466-2.2 0-2.2zm0-3h7.576c1.466 0 1.466 2.2 0 2.2H5.202c-1.466 0-1.466-2.2 0-2.2zM9.476.966c4.69.263 8.38 4.077 8.38 8.719 0 2.334-1.211 4.647-3.229 6.728-.286.265-.511.546-.61.781-.1.238-.151.632-.148 1.223v2.235a1.1 1.1 0 0 1-1.1 1.1H5.192a1.1 1.1 0 0 1-1.1-1.1v-2.239c.002-.593-.047-.984-.146-1.219-.1-.234-.325-.516-.655-.824C1.316 14.332.106 12.02.106 9.685c0-4.66 3.719-8.485 8.421-8.721a19.353 19.353 0 0 1 .464-.012c.156 0 .315.005.485.014zm2.193 18.053v-.596c-.004-.858.08-1.511.32-2.083.244-.578.65-1.084 1.101-1.5 1.614-1.666 2.565-3.485 2.565-5.155 0-3.463-2.766-6.325-6.298-6.522a7.075 7.075 0 0 0-.715-.002c-3.547.178-6.336 3.047-6.336 6.524 0 1.671.952 3.489 2.522 5.113.496.459.902.965 1.145 1.54.24.571.322 1.218.32 2.079v1.135h5.376v-.533z"/>
</svg>
