<svg xmlns="http://www.w3.org/2000/svg" width="48" height="48" viewBox="-6 -6 48 48"><g fill="none" fill-rule="evenodd"><path fill="#1E8508" d="M20.468 1C18.601 1 13.69 4.932 9.951 8.867c-3.329-.199-7.51-.156-8.152.566-1.382 1.555-.694 12.43 0 13.041.56.494 5.317.898 8.807.717C14.466 27.123 19.236 31 20.62 31c1.674 0 .63-3.098.63-15.194C21.248 4.296 22.143 1 20.467 1zm4.675 8.902a1.06 1.06 0 0 0-1.539 0 1.16 1.16 0 0 0 0 1.598c2.39 2.481 2.39 6.519 0 9a1.16 1.16 0 0 0 0 1.598 1.065 1.065 0 0 0 1.539 0c3.238-3.362 3.238-8.833 0-12.196zM31 16.428c0-3.46-1.486-6.71-4.186-9.148a1.082 1.082 0 0 0-1.536.086c-.401.451-.363 1.146.084 1.55 2.232 2.016 3.461 4.684 3.461 7.512 0 2.83-1.229 5.497-3.46 7.513a1.105 1.105 0 0 0-.085 1.55 1.08 1.08 0 0 0 1.537.086C29.514 23.14 31 19.89 31 16.428z"/><path stroke="#FFF" stroke-linecap="round" stroke-width="2" d="M1 29.286L29.286 1"/><path stroke="#1E8508" stroke-linecap="round" stroke-width="2" d="M1.857 30.143L30.143 1.857"/></g></svg>