<svg xmlns="http://www.w3.org/2000/svg" width="12" height="22" viewBox="0 0 12 22">
    <path fill="#1E8508" fill-rule="evenodd" stroke="#FFF" d="M3.056 13.622c-.093-.614-.075-1.181.055-1.7.13-.519.32-.994.57-1.426.25-.433.537-.831.86-1.196.325-.365.626-.711.903-1.038.278-.326.514-.639.709-.936.194-.298.291-.6.291-.908 0-.519-.152-.889-.458-1.11-.305-.22-.671-.331-1.097-.331-.482 0-.889.115-1.222.346-.334.23-.686.518-1.056.864L0 3.71a7.896 7.896 0 0 1 2.306-1.96C3.194 1.25 4.166 1 5.222 1a8.51 8.51 0 0 1 2.25.288c.704.192 1.32.49 1.847.894.528.403.94.927 1.237 1.57.296.644.444 1.417.444 2.32 0 .576-.102 1.09-.306 1.542a6.67 6.67 0 0 1-.736 1.253c-.287.385-.602.75-.944 1.096a10.87 10.87 0 0 0-.93 1.066 5.318 5.318 0 0 0-.681 1.181c-.176.423-.236.894-.18 1.412H3.055zm-.723 4.38c0-.844.26-1.555.778-2.132.519-.576 1.185-.864 2-.864s1.482.288 2 .864c.519.577.778 1.288.778 2.133s-.26 1.556-.778 2.132c-.518.577-1.185.865-2 .865s-1.481-.288-2-.865c-.518-.576-.778-1.287-.778-2.132z"/>
</svg>
