<svg xmlns="http://www.w3.org/2000/svg" width="48" height="48" viewBox="-7 -7 48 48"><path fill="#1E8508" fill-rule="evenodd" d="M19.572 0C17.695 0 12.758 3.932 9 7.867c-3.347-.199-7.551-.156-8.196.566-1.39 1.555-.698 12.43 0 13.041.563.494 5.346.898 8.854.717C13.54 26.123 18.333 30 19.725 30c1.683 0 .633-3.098.633-15.194C20.357 3.296 21.258 0 19.572 0zm4.561 9.308a1.058 1.058 0 0 0-1.531 0 1.148 1.148 0 0 0 0 1.584c2.379 2.461 2.379 6.466 0 8.927a1.148 1.148 0 0 0 0 1.584 1.061 1.061 0 0 0 1.531 0c3.223-3.334 3.223-8.76 0-12.095zM30 15.356c0-3.53-1.479-6.845-4.165-9.332a1.058 1.058 0 0 0-1.529.088c-.399.46-.361 1.169.084 1.581 2.221 2.057 3.444 4.778 3.444 7.663 0 2.886-1.223 5.607-3.444 7.663a1.147 1.147 0 0 0-.084 1.582 1.059 1.059 0 0 0 1.53.088C28.52 22.202 30 18.888 30 15.356z"/></svg>