<svg xmlns="http://www.w3.org/2000/svg" width="48" height="48" viewBox="-3 -7 48 48"><path fill="#1E8508" fill-rule="evenodd" d="M6.893 0h22.214C32.912 0 36 3.01 36 6.72v9.844c0 3.712-3.088 6.72-6.894 6.72h-3.065l-7.704 6.255c-1.036.841-1.869.445-1.869-.878v-5.377H6.893C3.087 23.284 0 20.276 0 16.564V6.72C0 3.01 3.087 0 6.893 0zM3.764 10.965v2.24h10.088v-2.24H3.764zm11.64 0v2.24h6.985v-2.24h-6.984zm8.536 0v2.24h8.537v-2.24H23.94zm2.329 4.48v2.24H31.7v-2.24h-5.432zm-14.744 0v2.24h13.192v-2.24H11.525zm-6.985 0v2.24h5.432v-2.24H4.54z"/></svg>