<svg xmlns="http://www.w3.org/2000/svg" width="48" height="48" viewBox="-7 -7 48 48"><path fill="#D8D8D8" fill-rule="evenodd" d="M4.97 28.511l16.424-16.869a1.11 1.11 0 0 0 0-1.537l-3.168-3.262a1.034 1.034 0 0 0-1.494 0L.31 23.712a1.11 1.11 0 0 0 0 1.537l3.168 3.262a1.036 1.036 0 0 0 1.493 0zm14.183-17.638l-3.632 3.74-1.674-1.724 3.632-3.74 1.674 1.724zm7.298-7.17l2.917 1c.216.074.361.282.361.516a.542.542 0 0 1-.362.516L26.45 6.736l-.973 3.004a.53.53 0 0 1-.5.372.53.53 0 0 1-.502-.372l-.972-3.004-2.918-1.001a.543.543 0 0 1-.36-.516c0-.234.145-.442.361-.516l2.918-1 .972-3.005a.53.53 0 0 1 .501-.371c.227 0 .43.15.501.371l.973 3.004zM7.557 6.41L4.639 5.409a.543.543 0 0 1-.36-.517c0-.234.145-.441.36-.515l2.918-1.002L8.53.371A.53.53 0 0 1 9.03 0c.228 0 .43.15.501.372l.972 3.004 2.918 1.001c.216.074.36.282.36.516a.543.543 0 0 1-.36.516l-2.918 1-.972 3.005a.53.53 0 0 1-.5.371.53.53 0 0 1-.502-.371L7.557 6.41zM20.23 20.773l.972-3.005a.53.53 0 0 1 .501-.37c.227 0 .43.149.501.37l.972 3.005 2.918 1c.216.075.36.283.36.517a.543.543 0 0 1-.36.515l-2.918 1.002-.972 3.004a.53.53 0 0 1-.5.371.53.53 0 0 1-.502-.371l-.972-3.004-2.918-1.002a.543.543 0 0 1-.36-.515c0-.234.145-.442.36-.516l2.918-1.001z"/></svg>